<svg xmlns="http://www.w3.org/2000/svg" xmlns:xlink="http://www.w3.org/1999/xlink" version="1.1" width="940" height="788" viewBox="0 0 940 788" xml:space="preserve">
<desc>Created with Fabric.js 3.5.0</desc>
<defs>
</defs>
<rect x="0" y="0" width="100%" height="100%" fill="rgba(141,25,25,0)"/>
<g transform="matrix(8.8984 0 0 8.8984 358.0584 258.7763)" id="616838">
<path style="stroke: none; stroke-width: 1; stroke-dasharray: none; stroke-linecap: butt; stroke-dashoffset: 0; stroke-linejoin: miter; stroke-miterlimit: 4; is-custom-font: none; font-file-url: none; fill: rgb(255,51,67); fill-rule: nonzero; opacity: 1;" transform=" translate(-859.9295, -153.9275)" d="M 882.247 143.516 L 870.446 131.61 C 870.25 131.415 870.017 131.261 869.761 131.156 C 869.504 131.051 869.23 130.998 868.953 131 C 868.401 131.002 867.872 131.221 867.481 131.61 L 837.612 161.374 C 837.22 161.768 837 162.301 837 162.857 C 837 163.412 837.22 163.946 837.612 164.34 L 849.517 176.245 C 849.714 176.44 849.947 176.594 850.203 176.699 C 850.459 176.804 850.734 176.857 851.011 176.855 C 851.562 176.853 852.091 176.634 852.483 176.245 L 858.436 170.292 L 876.294 152.434 L 882.247 146.481 C 882.639 146.087 882.859 145.554 882.859 144.998 C 882.859 144.443 882.639 143.91 882.247 143.516 V 143.516 Z M 874.801 147.975 L 873.307 146.481 C 872.913 146.09 872.38 145.87 871.824 145.87 C 871.269 145.87 870.735 146.09 870.341 146.481 C 870.144 146.677 869.988 146.91 869.881 147.166 C 869.774 147.422 869.719 147.697 869.719 147.975 C 869.719 148.253 869.774 148.527 869.881 148.784 C 869.988 149.04 870.144 149.273 870.341 149.468 L 871.835 150.962 L 868.848 153.928 L 864.389 149.468 C 863.986 149.124 863.469 148.944 862.939 148.964 C 862.41 148.985 861.908 149.204 861.533 149.579 C 861.158 149.953 860.939 150.455 860.918 150.985 C 860.898 151.514 861.078 152.032 861.423 152.434 L 865.882 156.893 L 862.895 159.88 L 861.423 158.387 C 861.027 157.991 860.489 157.768 859.929 157.768 C 859.369 157.768 858.832 157.991 858.436 158.387 C 858.04 158.783 857.817 159.32 857.817 159.88 C 857.817 160.441 858.04 160.978 858.436 161.374 L 859.929 162.846 L 856.963 165.833 L 852.483 161.374 C 852.089 160.982 851.556 160.762 851 160.762 C 850.444 160.762 849.911 160.982 849.517 161.374 C 849.125 161.768 848.906 162.301 848.906 162.857 C 848.906 163.412 849.125 163.946 849.517 164.34 L 853.976 168.799 L 851.011 171.786 L 842.071 162.846 L 868.848 136.069 L 877.788 145.009 L 874.801 147.975 Z" stroke-linecap="round"/>
</g>
<g transform="matrix(10.4025 0 0 10.4025 539.1465 438.929)" id="149935">
<path style="stroke: none; stroke-width: 1; stroke-dasharray: none; stroke-linecap: butt; stroke-dashoffset: 0; stroke-linejoin: miter; stroke-miterlimit: 4; is-custom-font: none; font-file-url: none; fill: rgb(255,51,67); fill-rule: nonzero; opacity: 1;" transform=" translate(-879.0695, -170.9655)" d="M 860.138 192 H 898 C 898.558 192 899.093 191.778 899.487 191.384 C 899.882 190.989 900.104 190.454 900.104 189.897 V 152.034 C 900.104 151.477 899.882 150.942 899.487 150.547 C 899.093 150.153 898.558 149.931 898 149.931 H 885.379 C 884.822 149.931 884.286 150.153 883.892 150.547 C 883.498 150.942 883.276 151.477 883.276 152.034 V 175.172 H 860.138 C 859.58 175.172 859.045 175.394 858.651 175.788 C 858.256 176.183 858.035 176.718 858.035 177.276 V 189.897 C 858.035 190.454 858.256 190.989 858.651 191.384 C 859.045 191.778 859.58 192 860.138 192 V 192 Z M 862.241 179.379 H 866.448 V 181.483 C 866.448 182.041 866.67 182.576 867.064 182.97 C 867.459 183.365 867.994 183.586 868.552 183.586 C 869.11 183.586 869.645 183.365 870.039 182.97 C 870.434 182.576 870.655 182.041 870.655 181.483 V 179.379 H 874.862 V 181.483 C 874.862 182.041 875.084 182.576 875.478 182.97 C 875.873 183.365 876.408 183.586 876.966 183.586 C 877.523 183.586 878.058 183.365 878.453 182.97 C 878.847 182.576 879.069 182.041 879.069 181.483 V 179.379 H 883.276 V 181.483 C 883.276 182.041 883.498 182.576 883.892 182.97 C 884.286 183.365 884.822 183.586 885.379 183.586 C 885.937 183.586 886.472 183.365 886.867 182.97 C 887.261 182.576 887.483 182.041 887.483 181.483 V 179.379 H 889.586 C 890.144 179.379 890.679 179.158 891.074 178.763 C 891.468 178.369 891.69 177.834 891.69 177.276 C 891.69 176.718 891.468 176.183 891.074 175.788 C 890.679 175.394 890.144 175.172 889.586 175.172 H 887.483 V 170.966 H 889.586 C 890.144 170.966 890.679 170.744 891.074 170.349 C 891.468 169.955 891.69 169.42 891.69 168.862 C 891.69 168.304 891.468 167.769 891.074 167.375 C 890.679 166.98 890.144 166.759 889.586 166.759 H 887.483 V 162.552 H 889.586 C 890.144 162.552 890.679 162.33 891.074 161.936 C 891.468 161.541 891.69 161.006 891.69 160.448 C 891.69 159.89 891.468 159.355 891.074 158.961 C 890.679 158.566 890.144 158.345 889.586 158.345 H 887.483 V 154.138 H 895.897 V 187.793 H 862.241 V 179.379 Z" stroke-linecap="round"/>
</g>
</svg>