<svg xmlns="http://www.w3.org/2000/svg" xmlns:xlink="http://www.w3.org/1999/xlink" version="1.1" width="940" height="788" viewBox="0 0 940 788" xml:space="preserve">
<desc>Created with Fabric.js 3.5.0</desc>
<defs>
</defs>
<rect x="0" y="0" width="100%" height="100%" fill="rgba(255,255,255,0)"/>
<g transform="matrix(27.6956 0 0 27.6956 470.0003 418.2043)" id="838280">
<path style="stroke: none; stroke-width: 1; stroke-dasharray: none; stroke-linecap: butt; stroke-dashoffset: 0; stroke-linejoin: miter; stroke-miterlimit: 4; is-custom-font: none; font-file-url: none; fill: rgb(255,255,255); fill-rule: nonzero; opacity: 1;" transform=" translate(-497, -350)" d="M 508 343.157 C 507.173 343.517 506.299 343.755 505.404 343.864 C 506.348 343.297 507.055 342.406 507.395 341.354 C 506.508 341.885 505.537 342.259 504.524 342.46 C 503.847 341.722 502.945 341.231 501.961 341.064 C 500.976 340.896 499.964 341.062 499.083 341.535 C 498.202 342.008 497.503 342.761 497.094 343.677 C 496.685 344.593 496.59 345.619 496.824 346.595 C 495.03 346.504 493.276 346.034 491.675 345.217 C 490.073 344.4 488.661 343.253 487.529 341.852 C 487.132 342.549 486.923 343.338 486.924 344.14 C 486.923 344.886 487.105 345.62 487.454 346.278 C 487.803 346.936 488.309 347.497 488.926 347.91 C 488.209 347.891 487.507 347.697 486.88 347.347 V 347.402 C 486.885 348.447 487.25 349.457 487.911 350.263 C 488.572 351.069 489.491 351.62 490.51 351.824 C 490.118 351.944 489.71 352.007 489.3 352.012 C 489.016 352.009 488.733 351.983 488.453 351.935 C 488.743 352.833 489.305 353.619 490.06 354.181 C 490.815 354.744 491.726 355.056 492.666 355.075 C 491.079 356.33 489.119 357.015 487.1 357.02 C 486.732 357.022 486.365 356.999 486 356.954 C 488.062 358.292 490.465 359.002 492.919 358.999 C 494.613 359.017 496.293 358.695 497.861 358.053 C 499.43 357.411 500.856 356.461 502.055 355.259 C 503.254 354.056 504.203 352.626 504.846 351.051 C 505.489 349.476 505.813 347.789 505.8 346.086 C 505.8 345.898 505.8 345.699 505.8 345.5 C 506.663 344.853 507.408 344.06 508 343.157 V 343.157 Z" stroke-linecap="round"/>
</g>
</svg>