<svg xmlns="http://www.w3.org/2000/svg" xmlns:xlink="http://www.w3.org/1999/xlink" version="1.1" width="1000" height="1000" viewBox="0 0 1000 1000" xml:space="preserve">
<desc>Created with Fabric.js 3.5.0</desc>
<defs>
</defs>
<rect x="0" y="0" width="100%" height="100%" fill="rgba(237,13,13,0)"/>
<g transform="matrix(0.1078 0 0 0.2251 485.0422 436.3446)" id="777349">
<rect style="stroke: none; stroke-width: 1; stroke-dasharray: none; stroke-linecap: butt; stroke-dashoffset: 0; stroke-linejoin: miter; stroke-miterlimit: 4; is-custom-font: none; font-file-url: none; fill: none; fill-rule: nonzero; opacity: 1;" x="-500" y="-214" rx="0" ry="0" width="1000" height="428"/>
</g>
<g transform="matrix(14.0166 0 0 14.0166 499.9996 499.9995)" id="175025">
<path style="stroke: none; stroke-width: 1; stroke-dasharray: none; stroke-linecap: butt; stroke-dashoffset: 0; stroke-linejoin: miter; stroke-miterlimit: 4; is-custom-font: none; font-file-url: none; fill: rgb(255,255,255); fill-rule: nonzero; opacity: 1;" transform=" translate(-480.5, -161.5)" d="M 483.562 167.6 H 471.312 C 470.5 167.6 469.721 167.921 469.147 168.493 C 468.573 169.065 468.25 169.841 468.25 170.65 C 468.25 171.459 468.573 172.235 469.147 172.807 C 469.721 173.379 470.5 173.7 471.312 173.7 H 483.562 C 484.375 173.7 485.154 173.379 485.728 172.807 C 486.302 172.235 486.625 171.459 486.625 170.65 C 486.625 169.841 486.302 169.065 485.728 168.493 C 485.154 167.921 484.375 167.6 483.562 167.6 Z M 495.812 137.1 H 492.199 C 491.567 135.32 490.398 133.779 488.852 132.686 C 487.305 131.594 485.458 131.005 483.562 131 H 477.438 C 475.542 131.005 473.695 131.594 472.148 132.686 C 470.602 133.779 469.433 135.32 468.801 137.1 H 465.188 C 462.751 137.1 460.414 138.064 458.691 139.78 C 456.968 141.496 456 143.823 456 146.25 V 182.85 C 456 185.277 456.968 187.604 458.691 189.32 C 460.414 191.036 462.751 192 465.188 192 H 495.812 C 498.249 192 500.586 191.036 502.309 189.32 C 504.032 187.604 505 185.277 505 182.85 V 146.25 C 505 143.823 504.032 141.496 502.309 139.78 C 500.586 138.064 498.249 137.1 495.812 137.1 V 137.1 Z M 474.375 140.15 C 474.375 139.341 474.698 138.565 475.272 137.993 C 475.846 137.421 476.625 137.1 477.438 137.1 H 483.562 C 484.375 137.1 485.154 137.421 485.728 137.993 C 486.302 138.565 486.625 139.341 486.625 140.15 V 143.2 H 474.375 V 140.15 Z M 498.875 182.85 C 498.875 183.659 498.552 184.435 497.978 185.007 C 497.404 185.579 496.625 185.9 495.812 185.9 H 465.188 C 464.375 185.9 463.596 185.579 463.022 185.007 C 462.448 184.435 462.125 183.659 462.125 182.85 V 146.25 C 462.125 145.441 462.448 144.665 463.022 144.093 C 463.596 143.521 464.375 143.2 465.188 143.2 H 468.25 V 146.25 C 468.25 147.059 468.573 147.835 469.147 148.407 C 469.721 148.979 470.5 149.3 471.312 149.3 H 489.688 C 490.5 149.3 491.279 148.979 491.853 148.407 C 492.427 147.835 492.75 147.059 492.75 146.25 V 143.2 H 495.812 C 496.625 143.2 497.404 143.521 497.978 144.093 C 498.552 144.665 498.875 145.441 498.875 146.25 V 182.85 Z M 489.688 155.4 H 471.312 C 470.5 155.4 469.721 155.721 469.147 156.293 C 468.573 156.865 468.25 157.641 468.25 158.45 C 468.25 159.259 468.573 160.035 469.147 160.607 C 469.721 161.179 470.5 161.5 471.312 161.5 H 489.688 C 490.5 161.5 491.279 161.179 491.853 160.607 C 492.427 160.035 492.75 159.259 492.75 158.45 C 492.75 157.641 492.427 156.865 491.853 156.293 C 491.279 155.721 490.5 155.4 489.688 155.4 Z" stroke-linecap="round"/>
</g>
</svg>