<svg xmlns="http://www.w3.org/2000/svg" xmlns:xlink="http://www.w3.org/1999/xlink" version="1.1" width="940" height="788" viewBox="0 0 940 788" xml:space="preserve">
<desc>Created with Fabric.js 3.5.0</desc>
<defs>
</defs>
<rect x="0" y="0" width="100%" height="100%" fill="rgba(255,255,255,0)"/>
<g transform="matrix(26.3277 0 0 26.3277 469.9997 412.4047)" id="695334">
<path style="stroke: none; stroke-width: 1; stroke-dasharray: none; stroke-linecap: butt; stroke-dashoffset: 0; stroke-linejoin: miter; stroke-miterlimit: 4; is-custom-font: none; font-file-url: none; fill: rgb(255,255,255); fill-rule: nonzero; opacity: 1;" transform=" translate(-573, -350.0001)" d="M 585.994 347.344 C 586.052 345.678 585.683 344.025 584.919 342.538 C 584.401 341.928 583.682 341.516 582.888 341.374 C 579.601 341.081 576.302 340.96 573.002 341.014 C 569.715 340.958 566.427 341.074 563.152 341.363 C 562.505 341.479 561.905 341.778 561.428 342.224 C 560.365 343.19 560.247 344.842 560.129 346.238 C 559.957 348.749 559.957 351.268 560.129 353.779 C 560.163 354.565 560.281 355.345 560.483 356.106 C 560.625 356.694 560.913 357.237 561.321 357.688 C 561.802 358.158 562.416 358.474 563.081 358.596 C 565.627 358.906 568.193 359.034 570.758 358.98 C 574.892 359.038 578.518 358.98 582.805 358.654 C 583.487 358.54 584.118 358.223 584.612 357.747 C 584.943 357.421 585.19 357.022 585.333 356.583 C 585.755 355.306 585.962 353.97 585.947 352.627 C 585.994 351.975 585.994 348.042 585.994 347.344 Z M 570.333 353.325 V 346.122 L 577.325 349.741 C 575.364 350.811 572.778 352.022 570.333 353.325 Z" stroke-linecap="round"/>
</g>
</svg>